<svg  viewBox="0 0 512 512" fill="none" xmlns="http://www.w3.org/2000/svg">
<g id="balloon 1">
<path id="string" d="M245.333 512C239.442 512 234.666 507.224 234.666 501.333C235.356 490.79 239.341 480.731 246.058 472.576C251.934 465.669 255.421 457.049 255.999 448C255.999 440.192 246.228 433.067 236.799 426.027C225.258 417.494 213.332 408.726 213.332 394.667C214.181 382.721 219.282 371.474 227.711 362.966C230.804 359.126 234.666 354.433 234.666 352.001C234.666 346.11 239.442 341.334 245.333 341.334C251.224 341.334 256 346.11 256 352.001C255.049 361.233 250.916 369.846 244.309 376.364C239.186 381.252 235.8 387.679 234.666 394.668C234.666 397.953 243.562 404.524 249.429 408.855C261.866 418.028 277.333 429.42 277.333 448.002C276.842 461.33 272.069 474.144 263.722 484.546C259.553 489.261 256.866 495.101 255.999 501.335C256 507.224 251.224 512 245.333 512Z" fill="#607D8B"/>
<path id="knot" d="M295.552 344.448L263.552 312.448C259.387 308.284 252.635 308.284 248.469 312.448L216.469 344.448C212.298 348.608 212.29 355.362 216.45 359.533C218.451 361.539 221.167 362.666 224 362.667H288C293.891 362.678 298.675 357.91 298.686 352.019C298.691 349.179 297.563 346.454 295.552 344.448Z" fill="#C62828"/>
<path id="balloon" d="M256 0C173.564 0.094 106.761 66.898 106.667 149.333C106.667 233.408 197.035 330.666 256 330.666C314.965 330.666 405.333 233.407 405.333 149.333C405.239 66.898 338.436 0.094 256 0Z" fill="#F44336"/>
<path id="shine" d="M160 160C154.109 160 149.333 155.224 149.333 149.333C149.404 90.452 197.119 42.737 256 42.667C261.891 42.667 266.667 47.443 266.667 53.334C266.667 59.225 261.891 64 256 64C208.872 64 170.667 102.205 170.667 149.333C170.667 155.224 165.891 160 160 160Z" fill="#E57373"/>
</g>
</svg>
