<svg width="200" height="200" viewBox="0 0 200 200" fill="none" xmlns="http://www.w3.org/2000/svg">
<g id="balloon 3">
<g id="balloon 1">
<path id="string" d="M95.8332 200C93.532 200 91.6664 198.134 91.6664 195.833C91.936 191.715 93.4926 187.786 96.1164 184.6C98.4117 181.902 99.7738 178.535 99.9996 175C99.9996 171.95 96.1828 169.167 92.4996 166.417C87.9914 163.084 83.3328 159.659 83.3328 154.167C83.6645 149.5 85.657 145.107 88.9496 141.784C90.1578 140.284 91.6664 138.45 91.6664 137.5C91.6664 135.199 93.532 133.334 95.8332 133.334C98.1344 133.334 100 135.199 100 137.5C99.6285 141.107 98.0141 144.471 95.4332 147.017C93.432 148.927 92.1094 151.437 91.6664 154.167C91.6664 155.45 95.1414 158.017 97.4332 159.709C102.291 163.292 108.333 167.742 108.333 175.001C108.141 180.207 106.277 185.212 103.016 189.276C101.388 191.118 100.338 193.399 99.9996 195.834C100 198.134 98.1344 200 95.8332 200Z" fill="#607D8B"/>
<path id="knot" d="M115.45 134.55L102.95 122.05C101.323 120.423 98.6856 120.423 97.0582 122.05L84.5582 134.55C82.9289 136.175 82.9258 138.813 84.5508 140.443C85.3324 141.226 86.3934 141.666 87.5 141.667H112.5C114.801 141.671 116.67 139.809 116.674 137.507C116.676 136.398 116.236 135.334 115.45 134.55Z" fill="#DCD303"/>
<path id="balloon" d="M100 0C67.7985 0.0367187 41.7035 26.132 41.6668 58.3332C41.6668 91.175 76.9668 129.166 100 129.166C123.033 129.166 158.333 91.1746 158.333 58.3332C158.297 26.132 132.202 0.0367187 100 0Z" fill="#FDF64D"/>
<path id="shine" d="M62.5 62.5C60.1988 62.5 58.3332 60.6344 58.3332 58.3332C58.361 35.3328 76.9996 16.6942 100 16.6668C102.301 16.6668 104.167 18.5324 104.167 20.8336C104.167 23.1348 102.301 25 100 25C81.5906 25 66.6668 39.9238 66.6668 58.3332C66.6668 60.6344 64.8012 62.5 62.5 62.5Z" fill="#FFFA87"/>
</g>
</g>
</svg>
