<svg width="513" height="512" viewBox="0 0 513 512" fill="none" xmlns="http://www.w3.org/2000/svg">
<g id="birthday-cake-cake-svgrepo-com 1">
<path id="Vector" d="M457.512 502.624H55.4258C29.7238 502.624 8.88678 481.788 8.88678 456.085H504.05C504.05 481.789 483.214 502.624 457.512 502.624Z" fill="#D9D9DB"/>
<path id="Vector_2" d="M41.4388 456.087H8.88776C8.88776 481.789 29.7238 502.626 55.4268 502.626H87.9788C62.2748 502.624 41.4388 481.789 41.4388 456.087Z" fill="#E1E1E3"/>
<g id="Group">
<path id="Vector_3" d="M452.417 456.087C452.417 481.789 431.581 502.626 405.878 502.626H457.511C483.213 502.626 504.05 481.79 504.05 456.087H452.417Z" fill="#C8C6CD"/>
<path id="Vector_4" d="M392.332 456.087C392.332 481.789 378.936 502.626 362.414 502.626H395.608C412.132 502.626 425.526 481.79 425.526 456.087H392.332Z" fill="#C8C6CD"/>
</g>
<path id="flame" d="M275.688 67.9481C275.688 78.5621 267.084 87.1661 256.47 87.1661C245.856 87.1661 237.252 78.5621 237.252 67.9481C237.252 57.3341 256.47 36.4871 256.47 36.4871C256.47 36.4871 275.688 57.3341 275.688 67.9481Z" fill="#F09EA0"/>
<path id="Vector_5" d="M279.377 179.126H233.563V96.268C233.563 91.24 237.639 87.166 242.665 87.166H270.273C275.301 87.166 279.375 91.242 279.375 96.268V179.125H279.377V179.126Z" fill="#D9D9DB"/>
<g id="Group_2">
<path id="Vector_6" d="M435.671 317.605H77.2657C59.8327 317.605 45.7007 331.737 45.7007 349.17V456.085H467.236V349.17C467.236 331.738 453.104 317.605 435.671 317.605Z" fill="#F9DE8F"/>
<path id="Vector_7" d="M388.012 179.126H125.837C110.722 179.126 98.4678 191.38 98.4678 206.495V317.606H415.381V206.495C415.381 191.38 403.127 179.126 388.012 179.126Z" fill="#F9DE8F"/>
</g>
<g id="Group_3">
<path id="Vector_8" d="M435.671 317.605H407.974C425.407 317.605 439.539 331.737 439.539 349.17V456.085H467.236V349.17C467.236 331.738 453.104 317.605 435.671 317.605Z" fill="#F7CF6D"/>
<path id="Vector_9" d="M388.012 179.126H360.324C375.439 179.126 388.194 191.286 388.194 206.401V317.512L415.38 317.606V206.495C415.381 191.38 403.127 179.126 388.012 179.126Z" fill="#F7CF6D"/>
</g>
<path id="Vector_10" d="M388.012 179.126H125.837C110.722 179.126 98.4678 191.38 98.4678 206.495V242.006H98.9328C116.529 241.593 116.257 219.58 133.021 219.486C149.843 219.392 156.142 245.653 173.362 245.701C190.692 245.749 197.339 219.189 215.329 219.036C232.88 218.886 239.453 244.056 257.578 244.04C275.54 244.024 282.976 219.293 299.557 219.778C315.806 220.253 319.807 244.335 336.063 244.814C352.76 245.305 360.793 220.248 378.042 220.552C395.013 220.851 398.383 246.474 414.917 246.723L415.382 246.692V206.496C415.381 191.38 403.127 179.126 388.012 179.126Z" fill="#F09EA0"/>
<path id="Vector_11" d="M388.012 179.126H360.324C375.439 179.126 388.194 191.286 388.194 206.401V224.387C397.353 231.609 402.314 246.532 414.915 246.722L415.38 246.691V206.495C415.381 191.38 403.127 179.126 388.012 179.126Z" fill="#EF8990"/>
<path id="Vector_12" d="M435.662 317.605H77.2568C59.8238 317.605 45.6918 331.737 45.6918 349.17V382.1C62.8188 381.313 62.7108 359.702 79.3258 359.609C96.1478 359.515 102.448 385.776 119.667 385.824C136.997 385.872 143.644 359.312 161.634 359.159C179.185 359.009 185.758 384.179 203.883 384.163C221.845 384.147 229.281 359.416 245.862 359.901C262.111 360.376 266.112 384.458 282.368 384.937C299.065 385.428 307.098 360.371 324.347 360.675C341.318 360.974 345.341 383.915 361.873 384.164C379.835 384.148 387.271 359.417 403.852 359.902C420.101 360.377 424.102 384.459 440.358 384.937C451.177 385.255 458.359 374.846 466.767 367.561L467.224 367.324V349.171C467.227 331.738 453.095 317.605 435.662 317.605Z" fill="#F09EA0"/>
<path id="Vector_13" d="M435.671 317.605H407.974C425.407 317.605 439.539 331.737 439.539 349.17V384.885C439.813 384.907 440.088 384.929 440.37 384.937C451.189 385.255 458.371 374.846 466.779 367.561L467.236 367.324V349.171C467.236 331.738 453.104 317.605 435.671 317.605Z" fill="#EF8990"/>
<path id="Vector_14" d="M133.105 227.905C137.35 227.905 141.069 231.744 146.679 238.055C153.027 245.197 160.925 254.085 173.338 254.121C173.362 254.121 173.385 254.121 173.41 254.121C185.702 254.121 193.735 245.326 200.191 238.257C206.303 231.565 210.377 227.498 215.4 227.454C220.284 227.435 224.16 231.147 230.09 237.242C236.687 244.022 244.894 252.458 257.558 252.458C257.566 252.458 257.576 252.458 257.584 252.458C270.139 252.447 278.514 244.142 285.243 237.469C291.047 231.714 294.907 228.19 299.092 228.19C299.165 228.19 299.238 228.191 299.31 228.192C303.408 228.312 306.54 231.864 311.31 237.649C316.905 244.433 323.868 252.876 335.815 253.227C347.74 253.605 356.001 245.407 362.658 238.843C368.946 232.642 373.103 228.858 377.893 228.969C382.583 229.033 386.378 225.349 386.459 220.7C386.54 216.051 382.839 212.216 378.19 212.134C365.973 211.935 357.584 220.2 350.835 226.855C344.725 232.879 340.676 236.516 336.309 236.398C332.206 236.278 329.072 232.724 324.3 226.937C318.707 220.154 311.744 211.713 299.802 211.363C288.009 211.012 280.239 218.72 273.387 225.514C267.048 231.8 262.82 235.616 257.569 235.622C257.566 235.622 257.563 235.622 257.56 235.622C252.38 235.622 248.284 231.798 242.159 225.501C235.703 218.865 227.678 210.617 215.488 210.617C215.412 210.617 215.333 210.617 215.257 210.618C202.532 210.727 194.341 219.695 187.759 226.902C181.862 233.36 177.95 237.284 173.408 237.284C173.4 237.284 173.393 237.284 173.386 237.284C168.837 237.272 165.017 233.341 159.265 226.871C153.005 219.828 145.222 211.069 133.114 211.069C133.068 211.069 133.021 211.069 132.974 211.069C128.325 211.095 124.577 214.885 124.603 219.535C124.629 224.169 128.392 227.906 133.02 227.906C133.047 227.905 133.076 227.905 133.105 227.905Z" fill="black"/>
<path id="Vector_15" d="M73.5878 368.981C78.2778 368.914 82.1658 372.976 88.0528 379.6C94.4398 386.786 102.389 395.731 114.737 395.766C114.763 395.766 114.785 395.766 114.811 395.766C127.04 395.765 134.788 387.284 141.623 379.799C148.003 372.813 152.268 368.568 157.702 368.522C157.731 368.522 157.76 368.522 157.79 368.522C162.928 368.522 167.065 372.391 173.249 378.747C179.892 385.574 188.156 394.069 200.782 394.069C200.79 394.069 200.799 394.069 200.808 394.069C213.331 394.058 221.767 385.692 228.546 378.97C234.718 372.849 238.775 369.153 243.46 369.277C247.966 369.409 251.263 373.137 256.271 379.207C261.892 386.024 268.888 394.506 280.758 394.854C292.614 395.222 300.591 387.322 307.641 380.371C313.299 374.79 318.17 369.939 323.741 370.069C328.775 370.158 332.231 373.739 337.454 379.575C343.161 385.953 350.263 393.89 362.101 394.067C362.143 394.067 362.184 394.068 362.227 394.068C374.749 394.057 383.186 385.691 389.965 378.969C396.139 372.848 400.209 369.167 404.879 369.276C409.224 369.41 412.84 365.988 412.966 361.649C413.093 357.31 409.678 353.688 405.339 353.562C393.598 353.197 385.789 360.967 378.895 367.805C373.213 373.439 368.305 378.308 362.275 378.346C357.594 378.245 354.24 374.757 349.169 369.09C343.377 362.618 336.17 354.562 324.018 354.349C323.864 354.347 323.712 354.345 323.559 354.345C311.643 354.345 303.312 362.559 296.603 369.176C291.1 374.603 286.353 379.274 281.22 379.139C276.709 379.007 273.41 375.278 268.401 369.204C262.781 362.389 255.787 353.908 243.921 353.561C232.19 353.196 224.371 360.966 217.477 367.804C211.776 373.458 206.853 378.339 200.795 378.345C200.792 378.345 200.788 378.345 200.784 378.345C195.201 378.345 190.913 374.354 184.518 367.781C178.019 361.101 169.942 352.798 157.798 352.798C157.723 352.798 157.645 352.798 157.57 352.799C144.892 352.907 136.644 361.938 130.017 369.195C123.855 375.942 119.753 380.043 114.808 380.043C114.8 380.043 114.791 380.043 114.783 380.043C109.826 380.03 105.818 375.92 99.8058 369.155C93.4848 362.042 85.6428 353.226 73.5008 353.259C69.1588 353.284 65.6608 356.823 65.6838 361.163C65.7088 365.489 69.2228 368.98 73.5438 368.98C73.5568 368.981 73.5728 368.981 73.5878 368.981Z" fill="black"/>
</g>
</svg>
